<svg xmlns="http://www.w3.org/2000/svg" xmlns:xlink="http://www.w3.org/1999/xlink" style="margin:auto;display:block;z-index:1;position:relative" width="3000" height="2000" preserveAspectRatio="xMidYMid" viewBox="0 0 3000 2000">
<g transform="translate(1500,1000) scale(1,1) translate(-1500,-1000)"><g transform="translate(3029.8175753968553,-849.2317826618942) scale(100)" opacity="0.27">
  <path d="M21.96 0 C21.96 5.52 26.1702355732492 4.865261559324636 24.057823026593905 9.965076578786938 S19.43129434700633 11.624835482706839 15.528064914856586 15.528064914856582 S15.06489159824924 21.94541047993861 9.965076578786938 24.057823026593905 S5.520000000000001 21.96 1.3446621854637939e-15 21.96 S-4.865261559324634 26.1702355732492 -9.965076578786936 24.057823026593905 S-11.624835482706839 19.43129434700633 -15.528064914856582 15.528064914856586 S-21.94541047993861 15.064891598249243 -24.057823026593905 9.96507657878694 S-21.96 5.520000000000002 -21.96 2.6893243709275877e-15 S-26.170235573249204 -4.865261559324631 -24.05782302659391 -9.965076578786935 S-19.43129434700633 -11.624835482706839 -15.528064914856587 -15.528064914856582 S-15.064891598249254 -21.9454104799386 -9.965076578786952 -24.0578230265939 S-5.520000000000004 -21.96 -4.0339865563913816e-15 -21.96 S4.865261559324642 -26.170235573249197 9.965076578786944 -24.0578230265939 S11.624835482706837 -19.43129434700633 15.52806491485658 -15.528064914856587 S21.9454104799386 -15.064891598249256 24.0578230265939 -9.965076578786954 S21.96 -5.520000000000005 21.96 -5.3786487418551754e-15" fill="#0a0a0a" stroke-width="0">
    <animateTransform attributeName="transform" type="rotate" dur="12.5s" repeatCount="indefinite" values="0;45"></animateTransform>
  </path>
</g><g transform="translate(3335.7810904762264,-1219.0781391942733) scale(100)" opacity="0.27">
  <path d="M26.352 0 C26.352 6.624 31.404282687899045 5.8383138711895635 28.86938763191269 11.958091894544326 S23.317553216407592 13.949802579248207 18.6336778978279 18.633677897827898 S18.07786991789909 26.334492575926337 11.958091894544328 28.86938763191269 S6.624000000000001 26.352 1.6135946225565527e-15 26.352 S-5.838313871189562 31.404282687899045 -11.958091894544324 28.86938763191269 S-13.949802579248207 23.317553216407592 -18.633677897827898 18.6336778978279 S-26.334492575926337 18.077869917899093 -28.86938763191269 11.95809189454433 S-26.352 6.624000000000003 -26.352 3.2271892451131053e-15 S-31.404282687899045 -5.838313871189559 -28.86938763191269 -11.958091894544323 S-23.317553216407596 -13.949802579248207 -18.633677897827905 -18.633677897827898 S-18.077869917899108 -26.334492575926326 -11.958091894544344 -28.869387631912684 S-6.624000000000004 -26.352 -4.840783867669657e-15 -26.352 S5.838313871189571 -31.404282687899045 11.958091894544333 -28.869387631912687 S13.949802579248203 -23.317553216407596 18.633677897827894 -18.633677897827905 S26.334492575926326 -18.077869917899108 28.869387631912684 -11.958091894544346 S26.352 -6.624000000000006 26.352 -6.454378490226211e-15" fill="#141414" stroke-width="0">
    <animateTransform attributeName="transform" type="rotate" dur="6.25s" repeatCount="indefinite" values="0;45"></animateTransform>
  </path>
</g><g transform="translate(4070.093526666716,-2106.709394871982) scale(100)" opacity="0.27">
  <path d="M36.892799999999994 0 C36.892799999999994 9.273599999999998 43.96599576305865 8.173639419665387 40.417142684677756 16.741328652362053 S32.64457450297063 19.529723610947485 26.08714905695906 26.087149056959053 S25.309017885058722 36.86828960629686 16.741328652362053 40.417142684677756 S9.2736 36.892799999999994 2.2590324715791732e-15 36.892799999999994 S-8.173639419665383 43.96599576305865 -16.74132865236205 40.417142684677756 S-19.529723610947485 32.64457450297063 -26.087149056959053 26.08714905695906 S-36.86828960629686 25.309017885058722 -40.417142684677756 16.741328652362057 S-36.892799999999994 9.273600000000004 -36.892799999999994 4.5180649431583464e-15 S-43.96599576305866 -8.173639419665378 -40.41714268467776 -16.741328652362046 S-32.64457450297063 -19.529723610947485 -26.087149056959063 -26.087149056959053 S-25.309017885058744 -36.86828960629685 -16.74132865236208 -40.41714268467775 S-9.273600000000005 -36.892799999999994 -6.777097414737519e-15 -36.892799999999994 S8.173639419665397 -43.96599576305865 16.741328652362064 -40.41714268467775 S19.52972361094748 -32.64457450297063 26.08714905695905 -26.087149056959063 S36.86828960629685 -25.309017885058744 40.41714268467775 -16.74132865236208 S36.892799999999994 -9.273600000000007 36.892799999999994 -9.036129886316693e-15" fill="#1b1b1b" stroke-width="0">
    <animateTransform attributeName="transform" type="rotate" dur="4.166666666666667s" repeatCount="indefinite" values="0;45"></animateTransform>
  </path>
</g><g transform="translate(5612.149642666746,-3970.7350317951714) scale(100)" opacity="0.27">
  <path d="M59.02848 0 C59.02848 14.83776 70.34559322089386 13.07782307146462 64.66742829548443 26.78612584377929 S52.23131920475301 31.247557777515986 41.7394384911345 41.73943849113449 S40.49442861609396 58.989263370074994 26.786125843779292 64.66742829548443 S14.837760000000003 59.02848 3.614451954526678e-15 59.02848 S-13.077823071464616 70.34559322089386 -26.786125843779285 64.66742829548443 S-31.247557777515986 52.23131920475301 -41.73943849113449 41.7394384911345 S-58.989263370074994 40.49442861609396 -64.66742829548443 26.786125843779296 S-59.02848 14.837760000000006 -59.02848 7.228903909053356e-15 S-70.34559322089386 -13.07782307146461 -64.66742829548443 -26.78612584377928 S-52.231319204753014 -31.247557777515983 -41.73943849113451 -41.73943849113449 S-40.49442861609399 -58.98926337007496 -26.786125843779327 -64.6674282954844 S-14.83776000000001 -59.02848 -1.0843355863580033e-14 -59.02848 S13.077823071464636 -70.34559322089385 26.786125843779303 -64.66742829548441 S31.247557777515976 -52.231319204753014 41.739438491134486 -41.73943849113451 S58.98926337007496 -40.494428616094 64.6674282954844 -26.78612584377933 S59.028479999999995 -14.837760000000014 59.02848 -1.445780781810671e-14" fill="#222222" stroke-width="0">
    <animateTransform attributeName="transform" type="rotate" dur="3.125s" repeatCount="indefinite" values="0;45"></animateTransform>
  </path>
</g><g transform="translate(8901.869356800144,-7947.32305723131) scale(100)" opacity="0.27">
  <path d="M106.251264 0 C106.251264 26.707967999999997 126.62206779760893 23.540081528636314 116.40137093187195 48.215026518802716 S94.0163745685554 56.245603999528775 75.1309892840421 75.13098928404209 S72.88997150896913 106.18067406613497 48.21502651880272 116.40137093187195 S26.707968000000005 106.251264 6.506013518148021e-15 106.251264 S-23.540081528636307 126.62206779760893 -48.21502651880271 116.40137093187195 S-56.245603999528775 94.0163745685554 -75.13098928404209 75.1309892840421 S-106.18067406613497 72.88997150896913 -116.40137093187195 48.21502651880273 S-106.251264 26.70796800000001 -106.251264 1.3012027036296042e-14 S-126.62206779760895 -23.540081528636296 -116.40137093187197 -48.2150265188027 S-94.01637456855542 -56.24560399952877 -75.13098928404212 -75.13098928404209 S-72.88997150896918 -106.18067406613493 -48.21502651880279 -116.40137093187192 S-26.707968000000015 -106.251264 -1.951804055444406e-14 -106.251264 S23.540081528636343 -126.62206779760892 48.215026518802745 -116.40137093187194 S56.24560399952877 -94.01637456855542 75.13098928404209 -75.13098928404212 S106.18067406613493 -72.8899715089692 116.40137093187192 -48.215026518802794 S106.251264 -26.707968000000022 106.251264 -2.6024054072592083e-14" fill="#292929" stroke-width="0">
    <animateTransform attributeName="transform" type="rotate" dur="2.5s" repeatCount="indefinite" values="0;45"></animateTransform>
  </path>
</g></g>
</svg>